<svg width="25" height="25" viewBox="0 0 25 25" fill="none" xmlns="http://www.w3.org/2000/svg">
<path d="M25 12.5C25 19.4036 19.4036 25 12.5 25C5.59644 25 0 19.4036 0 12.5C0 5.59644 5.59644 0 12.5 0C19.4036 0 25 5.59644 25 12.5Z" fill="white"/>
<path d="M13.5 13.8571V7.85714C13.5 7.62981 13.3946 7.4118 13.2071 7.25105C13.0196 7.09031 12.7652 7 12.5 7C12.2348 7 11.9804 7.09031 11.7929 7.25105C11.6054 7.4118 11.5 7.62981 11.5 7.85714V13.8571C11.5 14.0845 11.6054 14.3025 11.7929 14.4632C11.9804 14.624 12.2348 14.7143 12.5 14.7143C12.7652 14.7143 13.0196 14.624 13.2071 14.4632C13.3946 14.3025 13.5 14.0845 13.5 13.8571ZM11 17.7143C11 17.9686 11.088 18.2172 11.2528 18.4286C11.4176 18.64 11.6519 18.8048 11.926 18.9021C12.2001 18.9994 12.5017 19.0249 12.7926 18.9753C13.0836 18.9257 13.3509 18.8032 13.5607 18.6234C13.7704 18.4436 13.9133 18.2145 13.9712 17.9651C14.0291 17.7157 13.9994 17.4572 13.8858 17.2223C13.7723 16.9873 13.58 16.7865 13.3334 16.6453C13.0867 16.504 12.7967 16.4286 12.5 16.4286C12.1022 16.4286 11.7206 16.564 11.4393 16.8051C11.158 17.0463 11 17.3733 11 17.7143Z" fill="#FFB144"/>
</svg>
